<svg xmlns="http://www.w3.org/2000/svg" viewBox="0 0 128 128" role="img" aria-label="HR Helper icon">
  <defs>
    <linearGradient id="bg" x1="18" y1="12" x2="110" y2="116" gradientUnits="userSpaceOnUse">
      <stop offset="0" stop-color="#12b886"/>
      <stop offset="0.52" stop-color="#228be6"/>
      <stop offset="1" stop-color="#364fc7"/>
    </linearGradient>
    <linearGradient id="lens" x1="35" y1="30" x2="87" y2="88" gradientUnits="userSpaceOnUse">
      <stop offset="0" stop-color="#ffffff"/>
      <stop offset="1" stop-color="#d8f3ff"/>
    </linearGradient>
  </defs>
  <rect width="128" height="128" rx="26" fill="url(#bg)"/>
  <path d="M35 43c0-6.6 5.4-12 12-12h34c6.6 0 12 5.4 12 12v8H82v-6c0-1.7-1.3-3-3-3H49c-1.7 0-3 1.3-3 3v6H35v-8Z" fill="#ffffff" opacity=".92"/>
  <rect x="26" y="48" width="76" height="50" rx="13" fill="#ffffff" opacity=".96"/>
  <rect x="49" y="59" width="30" height="8" rx="4" fill="#228be6"/>
  <rect x="39" y="76" width="50" height="7" rx="3.5" fill="#12b886"/>
  <circle cx="83" cy="83" r="22" fill="url(#lens)" stroke="#102a43" stroke-width="8"/>
  <path d="m98 98 17 17" stroke="#102a43" stroke-width="11" stroke-linecap="round"/>
  <text x="64" y="38" fill="#ffffff" font-family="Arial, Helvetica, sans-serif" font-size="26" font-weight="800" text-anchor="middle" letter-spacing="0">HR</text>
</svg>
